<svg id="visual" viewBox="0 0 1920 1080" width="1920" height="1080" xmlns="http://www.w3.org/2000/svg" xmlns:xlink="http://www.w3.org/1999/xlink" version="1.1"><rect x="0" y="0" width="1920" height="1080" fill="#001220"></rect><defs><linearGradient id="grad1_0" x1="43.8%" y1="0%" x2="100%" y2="100%"><stop offset="14.444444444444446%" stop-color="#001220" stop-opacity="1"></stop><stop offset="85.55555555555554%" stop-color="#001220" stop-opacity="1"></stop></linearGradient></defs><defs><linearGradient id="grad2_0" x1="0%" y1="0%" x2="56.3%" y2="100%"><stop offset="14.444444444444446%" stop-color="#001220" stop-opacity="1"></stop><stop offset="85.55555555555554%" stop-color="#001220" stop-opacity="1"></stop></linearGradient></defs><g transform="translate(1920, 0)"><path d="M0 972C-95.4 875.9 -190.9 779.8 -306.5 740C-422.2 700.3 -558 716.9 -665.4 665.4C-772.8 613.9 -851.7 494.2 -898 372C-944.4 249.7 -958.2 124.9 -972 0L0 0Z" fill="#002233"></path></g><g transform="translate(0, 1080)"><path d="M0 -972C104.4 -910.6 208.8 -849.1 337.1 -813.9C465.4 -778.7 617.6 -769.7 687.3 -687.3C757 -604.9 744.2 -449 777.9 -322.2C811.6 -195.4 891.8 -97.7 972 0L0 0Z" fill="#002233"></path></g></svg>