<svg id="visual" viewBox="0 0 1920 1080" width="1920" height="1080" xmlns="http://www.w3.org/2000/svg" xmlns:xlink="http://www.w3.org/1999/xlink" version="1.1"><rect x="0" y="0" width="1920" height="1080" fill="#001220"></rect><path d="M0 737L45.7 753C91.3 769 182.7 801 274.2 820.5C365.7 840 457.3 847 548.8 835.3C640.3 823.7 731.7 793.3 823 775.3C914.3 757.3 1005.7 751.7 1097 757.5C1188.3 763.3 1279.7 780.7 1371.2 783.5C1462.7 786.3 1554.3 774.7 1645.8 777.2C1737.3 779.7 1828.7 796.3 1874.3 804.7L1920 813L1920 1081L1874.3 1081C1828.7 1081 1737.3 1081 1645.8 1081C1554.3 1081 1462.7 1081 1371.2 1081C1279.7 1081 1188.3 1081 1097 1081C1005.7 1081 914.3 1081 823 1081C731.7 1081 640.3 1081 548.8 1081C457.3 1081 365.7 1081 274.2 1081C182.7 1081 91.3 1081 45.7 1081L0 1081Z" fill="#caf0f8"></path><path d="M0 821L45.7 828.7C91.3 836.3 182.7 851.7 274.2 853.3C365.7 855 457.3 843 548.8 837C640.3 831 731.7 831 823 842.7C914.3 854.3 1005.7 877.7 1097 885.5C1188.3 893.3 1279.7 885.7 1371.2 872.5C1462.7 859.3 1554.3 840.7 1645.8 844.2C1737.3 847.7 1828.7 873.3 1874.3 886.2L1920 899L1920 1081L1874.3 1081C1828.7 1081 1737.3 1081 1645.8 1081C1554.3 1081 1462.7 1081 1371.2 1081C1279.7 1081 1188.3 1081 1097 1081C1005.7 1081 914.3 1081 823 1081C731.7 1081 640.3 1081 548.8 1081C457.3 1081 365.7 1081 274.2 1081C182.7 1081 91.3 1081 45.7 1081L0 1081Z" fill="#75b8d6"></path><path d="M0 914L45.7 907.7C91.3 901.3 182.7 888.7 274.2 889C365.7 889.3 457.3 902.7 548.8 914.2C640.3 925.7 731.7 935.3 823 927.2C914.3 919 1005.7 893 1097 887.7C1188.3 882.3 1279.7 897.7 1371.2 911.5C1462.7 925.3 1554.3 937.7 1645.8 935.8C1737.3 934 1828.7 918 1874.3 910L1920 902L1920 1081L1874.3 1081C1828.7 1081 1737.3 1081 1645.8 1081C1554.3 1081 1462.7 1081 1371.2 1081C1279.7 1081 1188.3 1081 1097 1081C1005.7 1081 914.3 1081 823 1081C731.7 1081 640.3 1081 548.8 1081C457.3 1081 365.7 1081 274.2 1081C182.7 1081 91.3 1081 45.7 1081L0 1081Z" fill="#257eb7"></path><path d="M0 980L45.7 981.8C91.3 983.7 182.7 987.3 274.2 989C365.7 990.7 457.3 990.3 548.8 984.3C640.3 978.3 731.7 966.7 823 959.2C914.3 951.7 1005.7 948.3 1097 953.8C1188.3 959.3 1279.7 973.7 1371.2 975.3C1462.7 977 1554.3 966 1645.8 960.5C1737.3 955 1828.7 955 1874.3 955L1920 955L1920 1081L1874.3 1081C1828.7 1081 1737.3 1081 1645.8 1081C1554.3 1081 1462.7 1081 1371.2 1081C1279.7 1081 1188.3 1081 1097 1081C1005.7 1081 914.3 1081 823 1081C731.7 1081 640.3 1081 548.8 1081C457.3 1081 365.7 1081 274.2 1081C182.7 1081 91.3 1081 45.7 1081L0 1081Z" fill="#004491"></path><path d="M0 1002L45.7 1005.2C91.3 1008.3 182.7 1014.7 274.2 1014.7C365.7 1014.7 457.3 1008.3 548.8 1005.5C640.3 1002.7 731.7 1003.3 823 1003C914.3 1002.7 1005.7 1001.3 1097 1000.2C1188.3 999 1279.7 998 1371.2 999C1462.7 1000 1554.3 1003 1645.8 1010.5C1737.3 1018 1828.7 1030 1874.3 1036L1920 1042L1920 1081L1874.3 1081C1828.7 1081 1737.3 1081 1645.8 1081C1554.3 1081 1462.7 1081 1371.2 1081C1279.7 1081 1188.3 1081 1097 1081C1005.7 1081 914.3 1081 823 1081C731.7 1081 640.3 1081 548.8 1081C457.3 1081 365.7 1081 274.2 1081C182.7 1081 91.3 1081 45.7 1081L0 1081Z" fill="#03045e"></path></svg>