<svg id="visual" viewBox="0 0 1920 1080" width="1920" height="1080" xmlns="http://www.w3.org/2000/svg" xmlns:xlink="http://www.w3.org/1999/xlink" version="1.1"><rect x="0" y="0" width="1920" height="1080" fill="#001220"></rect><path d="M0 255L45.7 263.3C91.3 271.7 182.7 288.3 274.2 292.8C365.7 297.3 457.3 289.7 548.8 281.2C640.3 272.7 731.7 263.3 823 266.7C914.3 270 1005.7 286 1097 287.8C1188.3 289.7 1279.7 277.3 1371.2 276.2C1462.7 275 1554.3 285 1645.8 277.7C1737.3 270.3 1828.7 245.7 1874.3 233.3L1920 221L1920 0L1874.3 0C1828.7 0 1737.3 0 1645.8 0C1554.3 0 1462.7 0 1371.2 0C1279.7 0 1188.3 0 1097 0C1005.7 0 914.3 0 823 0C731.7 0 640.3 0 548.8 0C457.3 0 365.7 0 274.2 0C182.7 0 91.3 0 45.7 0L0 0Z" fill="#caf0f8"></path><path d="M0 244L45.7 238C91.3 232 182.7 220 274.2 217.5C365.7 215 457.3 222 548.8 224.3C640.3 226.7 731.7 224.3 823 218.5C914.3 212.7 1005.7 203.3 1097 205.5C1188.3 207.7 1279.7 221.3 1371.2 237.8C1462.7 254.3 1554.3 273.7 1645.8 264.5C1737.3 255.3 1828.7 217.7 1874.3 198.8L1920 180L1920 0L1874.3 0C1828.7 0 1737.3 0 1645.8 0C1554.3 0 1462.7 0 1371.2 0C1279.7 0 1188.3 0 1097 0C1005.7 0 914.3 0 823 0C731.7 0 640.3 0 548.8 0C457.3 0 365.7 0 274.2 0C182.7 0 91.3 0 45.7 0L0 0Z" fill="#75b8d6"></path><path d="M0 161L45.7 159C91.3 157 182.7 153 274.2 157.5C365.7 162 457.3 175 548.8 178.7C640.3 182.3 731.7 176.7 823 183.2C914.3 189.7 1005.7 208.3 1097 202.5C1188.3 196.7 1279.7 166.3 1371.2 163.7C1462.7 161 1554.3 186 1645.8 193.5C1737.3 201 1828.7 191 1874.3 186L1920 181L1920 0L1874.3 0C1828.7 0 1737.3 0 1645.8 0C1554.3 0 1462.7 0 1371.2 0C1279.7 0 1188.3 0 1097 0C1005.7 0 914.3 0 823 0C731.7 0 640.3 0 548.8 0C457.3 0 365.7 0 274.2 0C182.7 0 91.3 0 45.7 0L0 0Z" fill="#257eb7"></path><path d="M0 152L45.7 143.5C91.3 135 182.7 118 274.2 115C365.7 112 457.3 123 548.8 134.2C640.3 145.3 731.7 156.7 823 156.7C914.3 156.7 1005.7 145.3 1097 133.7C1188.3 122 1279.7 110 1371.2 112.5C1462.7 115 1554.3 132 1645.8 134.7C1737.3 137.3 1828.7 125.7 1874.3 119.8L1920 114L1920 0L1874.3 0C1828.7 0 1737.3 0 1645.8 0C1554.3 0 1462.7 0 1371.2 0C1279.7 0 1188.3 0 1097 0C1005.7 0 914.3 0 823 0C731.7 0 640.3 0 548.8 0C457.3 0 365.7 0 274.2 0C182.7 0 91.3 0 45.7 0L0 0Z" fill="#004491"></path><path d="M0 57L45.7 62.8C91.3 68.7 182.7 80.3 274.2 78.2C365.7 76 457.3 60 548.8 59.2C640.3 58.3 731.7 72.7 823 75C914.3 77.3 1005.7 67.7 1097 62C1188.3 56.3 1279.7 54.7 1371.2 51.3C1462.7 48 1554.3 43 1645.8 43.7C1737.3 44.3 1828.7 50.7 1874.3 53.8L1920 57L1920 0L1874.3 0C1828.7 0 1737.3 0 1645.8 0C1554.3 0 1462.7 0 1371.2 0C1279.7 0 1188.3 0 1097 0C1005.7 0 914.3 0 823 0C731.7 0 640.3 0 548.8 0C457.3 0 365.7 0 274.2 0C182.7 0 91.3 0 45.7 0L0 0Z" fill="#03045e"></path></svg>