<svg id="visual" viewBox="0 0 1920 1080" width="1920" height="1080" xmlns="http://www.w3.org/2000/svg" xmlns:xlink="http://www.w3.org/1999/xlink" version="1.1"><path d="M0 228L29.2 231.5C58.3 235 116.7 242 174.8 238.3C233 234.7 291 220.3 349.2 272.7C407.3 325 465.7 444 523.8 444C582 444 640 325 698.2 260.2C756.3 195.3 814.7 184.7 872.8 208.2C931 231.7 989 289.3 1047.2 327.2C1105.3 365 1163.7 383 1221.8 365C1280 347 1338 293 1396.2 287.5C1454.3 282 1512.7 325 1570.8 343C1629 361 1687 354 1745.2 346.8C1803.3 339.7 1861.7 332.3 1890.8 328.7L1920 325L1920 0L1890.8 0C1861.7 0 1803.3 0 1745.2 0C1687 0 1629 0 1570.8 0C1512.7 0 1454.3 0 1396.2 0C1338 0 1280 0 1221.8 0C1163.7 0 1105.3 0 1047.2 0C989 0 931 0 872.8 0C814.7 0 756.3 0 698.2 0C640 0 582 0 523.8 0C465.7 0 407.3 0 349.2 0C291 0 233 0 174.8 0C116.7 0 58.3 0 29.2 0L0 0Z" fill="#000e19"></path><path d="M0 411L29.2 414.7C58.3 418.3 116.7 425.7 174.8 407.7C233 389.7 291 346.3 349.2 384.2C407.3 422 465.7 541 523.8 551.8C582 562.7 640 465.3 698.2 409.5C756.3 353.7 814.7 339.3 872.8 357.3C931 375.3 989 425.7 1047.2 450.8C1105.3 476 1163.7 476 1221.8 461.7C1280 447.3 1338 418.7 1396.2 418.7C1454.3 418.7 1512.7 447.3 1570.8 452.7C1629 458 1687 440 1745.2 429.2C1803.3 418.3 1861.7 414.7 1890.8 412.8L1920 411L1920 323L1890.8 326.7C1861.7 330.3 1803.3 337.7 1745.2 344.8C1687 352 1629 359 1570.8 341C1512.7 323 1454.3 280 1396.2 285.5C1338 291 1280 345 1221.8 363C1163.7 381 1105.3 363 1047.2 325.2C989 287.3 931 229.7 872.8 206.2C814.7 182.7 756.3 193.3 698.2 258.2C640 323 582 442 523.8 442C465.7 442 407.3 323 349.2 270.7C291 218.3 233 232.7 174.8 236.3C116.7 240 58.3 233 29.2 229.5L0 226Z" fill="#00101c"></path><path d="M0 498L29.2 521.3C58.3 544.7 116.7 591.3 174.8 575.2C233 559 291 480 349.2 499.8C407.3 519.7 465.7 638.3 523.8 645.5C582 652.7 640 548.3 698.2 489C756.3 429.7 814.7 415.3 872.8 456.7C931 498 989 595 1047.2 645.3C1105.3 695.7 1163.7 699.3 1221.8 683.2C1280 667 1338 631 1396.2 618.3C1454.3 605.7 1512.7 616.3 1570.8 607.3C1629 598.3 1687 569.7 1745.2 573.3C1803.3 577 1861.7 613 1890.8 631L1920 649L1920 409L1890.8 410.8C1861.7 412.7 1803.3 416.3 1745.2 427.2C1687 438 1629 456 1570.8 450.7C1512.7 445.3 1454.3 416.7 1396.2 416.7C1338 416.7 1280 445.3 1221.8 459.7C1163.7 474 1105.3 474 1047.2 448.8C989 423.7 931 373.3 872.8 355.3C814.7 337.3 756.3 351.7 698.2 407.5C640 463.3 582 560.7 523.8 549.8C465.7 539 407.3 420 349.2 382.2C291 344.3 233 387.7 174.8 405.7C116.7 423.7 58.3 416.3 29.2 412.7L0 409Z" fill="#001120"></path><path d="M0 833L29.2 836.5C58.3 840 116.7 847 174.8 845.2C233 843.3 291 832.7 349.2 847.2C407.3 861.7 465.7 901.3 523.8 899.5C582 897.7 640 854.3 698.2 829C756.3 803.7 814.7 796.3 872.8 821.5C931 846.7 989 904.3 1047.2 922.3C1105.3 940.3 1163.7 918.7 1221.8 907.8C1280 897 1338 897 1396.2 893.5C1454.3 890 1512.7 883 1570.8 868.7C1629 854.3 1687 832.7 1745.2 850.7C1803.3 868.7 1861.7 926.3 1890.8 955.2L1920 984L1920 647L1890.8 629C1861.7 611 1803.3 575 1745.2 571.3C1687 567.7 1629 596.3 1570.8 605.3C1512.7 614.3 1454.3 603.7 1396.2 616.3C1338 629 1280 665 1221.8 681.2C1163.7 697.3 1105.3 693.7 1047.2 643.3C989 593 931 496 872.8 454.7C814.7 413.3 756.3 427.7 698.2 487C640 546.3 582 650.7 523.8 643.5C465.7 636.3 407.3 517.7 349.2 497.8C291 478 233 557 174.8 573.2C116.7 589.3 58.3 542.7 29.2 519.3L0 496Z" fill="#012440"></path><path d="M0 1081L29.2 1081C58.3 1081 116.7 1081 174.8 1081C233 1081 291 1081 349.2 1081C407.3 1081 465.7 1081 523.8 1081C582 1081 640 1081 698.2 1081C756.3 1081 814.7 1081 872.8 1081C931 1081 989 1081 1047.2 1081C1105.3 1081 1163.7 1081 1221.8 1081C1280 1081 1338 1081 1396.2 1081C1454.3 1081 1512.7 1081 1570.8 1081C1629 1081 1687 1081 1745.2 1081C1803.3 1081 1861.7 1081 1890.8 1081L1920 1081L1920 982L1890.8 953.2C1861.7 924.3 1803.3 866.7 1745.2 848.7C1687 830.7 1629 852.3 1570.8 866.7C1512.7 881 1454.3 888 1396.2 891.5C1338 895 1280 895 1221.8 905.8C1163.7 916.7 1105.3 938.3 1047.2 920.3C989 902.3 931 844.7 872.8 819.5C814.7 794.3 756.3 801.7 698.2 827C640 852.3 582 895.7 523.8 897.5C465.7 899.3 407.3 859.7 349.2 845.2C291 830.7 233 841.3 174.8 843.2C116.7 845 58.3 838 29.2 834.5L0 831Z" fill="#003862"></path></svg>