<svg id="visual" viewBox="0 0 1920 1080" width="1920" height="1080" xmlns="http://www.w3.org/2000/svg" xmlns:xlink="http://www.w3.org/1999/xlink" version="1.1"><rect x="0" y="0" width="1920" height="1080" fill="#001220"></rect><path d="M0 680L45.7 713.3C91.3 746.7 182.7 813.3 274.2 835.3C365.7 857.3 457.3 834.7 548.8 838.2C640.3 841.7 731.7 871.3 823 881.3C914.3 891.3 1005.7 881.7 1097 880.2C1188.3 878.7 1279.7 885.3 1371.2 873.5C1462.7 861.7 1554.3 831.3 1645.8 808.7C1737.3 786 1828.7 771 1874.3 763.5L1920 756L1920 1081L1874.3 1081C1828.7 1081 1737.3 1081 1645.8 1081C1554.3 1081 1462.7 1081 1371.2 1081C1279.7 1081 1188.3 1081 1097 1081C1005.7 1081 914.3 1081 823 1081C731.7 1081 640.3 1081 548.8 1081C457.3 1081 365.7 1081 274.2 1081C182.7 1081 91.3 1081 45.7 1081L0 1081Z" fill="#002233" stroke-linecap="round" stroke-linejoin="miter"></path></svg>