<svg id="visual" viewBox="0 0 1920 1080" width="1920" height="1080" xmlns="http://www.w3.org/2000/svg" xmlns:xlink="http://www.w3.org/1999/xlink" version="1.1"><rect x="0" y="0" width="1920" height="1080" fill="#002233"></rect><path d="M0 82L35.5 77C71 72 142 62 213.2 58.7C284.3 55.3 355.7 58.7 426.8 60.7C498 62.7 569 63.3 640 81.2C711 99 782 134 853.2 135.8C924.3 137.7 995.7 106.3 1066.8 106.3C1138 106.3 1209 137.7 1280 133C1351 128.3 1422 87.7 1493.2 76.3C1564.3 65 1635.7 83 1706.8 99C1778 115 1849 129 1884.5 136L1920 143L1920 0L1884.5 0C1849 0 1778 0 1706.8 0C1635.7 0 1564.3 0 1493.2 0C1422 0 1351 0 1280 0C1209 0 1138 0 1066.8 0C995.7 0 924.3 0 853.2 0C782 0 711 0 640 0C569 0 498 0 426.8 0C355.7 0 284.3 0 213.2 0C142 0 71 0 35.5 0L0 0Z" fill="#001220" stroke-linecap="round" stroke-linejoin="miter"></path></svg>